<?xml version="1.0" encoding="UTF-8" standalone="no"?>
<svg width="71px" height="80px" viewBox="0 0 71 80" version="1.1" xmlns="http://www.w3.org/2000/svg" xmlns:xlink="http://www.w3.org/1999/xlink" xmlns:sketch="http://www.bohemiancoding.com/sketch/ns">
    <!-- Generator: Sketch 3.3 (11970) - http://www.bohemiancoding.com/sketch -->
    <title>noun_68462_cc</title>
    <desc>Created with Sketch.</desc>
    <defs></defs>
    <g id="Page-1" stroke="none" stroke-width="1" fill="none" fill-rule="evenodd" sketch:type="MSPage">
        <g id="Paso-1" sketch:type="MSArtboardGroup" transform="translate(-993.000000, -1224.000000)" fill="#7E7E7E">
            <g id="noun_68473_cc-+-noun_68462_cc-+-noun_68496_cc" sketch:type="MSLayerGroup" transform="translate(376.500000, 1224.000000)">
                <g id="noun_68462_cc" transform="translate(617.000000, 0.000000)" sketch:type="MSShapeGroup">
                    <path d="M58.3333333,80 L1.66666667,80 C0.746666667,80 0,79.25 0,78.3333333 L0,20.2733333 C0,19.8633333 0.15,19.47 0.423333333,19.1633333 L17.09,0.556666667 C17.4066667,0.203333333 17.8566667,0 18.3333333,0 L58.3333333,0 C59.25,0 60,0.746666667 60,1.66666667 L60,40 C60,40.92 59.25,41.6666667 58.3333333,41.6666667 C57.4166667,41.6666667 56.6666667,40.92 56.6666667,40 L56.6666667,3.33333333 L19.08,3.33333333 L3.33333333,20.91 L3.33333333,76.6666667 L56.6666667,76.6666667 L56.6666667,70 C56.6666667,69.0833333 57.4166667,68.3333333 58.3333333,68.3333333 C59.25,68.3333333 60,69.0833333 60,70 L60,78.3333333 C60,79.25 59.25,80 58.3333333,80 L58.3333333,80 Z" id="Shape"></path>
                    <path d="M18.3333333,23.3333333 L3.33333333,23.3333333 C2.41333333,23.3333333 1.66666667,22.5866667 1.66666667,21.6666667 C1.66666667,20.7466667 2.41333333,20 3.33333333,20 L16.6666667,20 L16.6666667,3.33333333 C16.6666667,2.41333333 17.4133333,1.66666667 18.3333333,1.66666667 C19.2533333,1.66666667 20,2.41333333 20,3.33333333 L20,21.6666667 C20,22.5866667 19.2533333,23.3333333 18.3333333,23.3333333 L18.3333333,23.3333333 Z" id="Shape"></path>
                    <path d="M65,70 L25,70 C22.2433333,70 20,67.7566667 20,65 L20,45 C20,42.2433333 22.2433333,40 25,40 L65,40 C67.7566667,40 70,42.2433333 70,45 L70,65 C70,67.7566667 67.7566667,70 65,70 L65,70 Z M25,43.3333333 C24.08,43.3333333 23.3333333,44.0833333 23.3333333,45 L23.3333333,65 C23.3333333,65.9166667 24.08,66.6666667 25,66.6666667 L65,66.6666667 C65.9166667,66.6666667 66.6666667,65.9166667 66.6666667,65 L66.6666667,45 C66.6666667,44.0833333 65.9166667,43.3333333 65,43.3333333 L25,43.3333333 L25,43.3333333 Z" id="Shape"></path>
                    <path d="M39.0966667,59.6366667 C39.19,59.6366667 39.2766667,59.68 39.35,59.75 L40.0133333,60.4766667 C39.5,61.07 38.88,61.5333333 38.1433333,61.8633333 C37.4133333,62.2 36.5333333,62.36 35.5033333,62.36 C34.6,62.36 33.78,62.2033333 33.0466667,61.8933333 C32.3133333,61.58 31.6866667,61.1366667 31.17,60.5733333 C30.65,60.0133333 30.25,59.3366667 29.9633333,58.56 C29.68,57.7733333 29.5366667,56.9066667 29.5366667,55.9633333 C29.5366667,55.02 29.69,54.1566667 29.9966667,53.37 C30.3033333,52.5866667 30.7333333,51.91 31.2866667,51.35 C31.84,50.7866667 32.5033333,50.3466667 33.2733333,50.03 C34.0433333,49.7166667 34.8966667,49.56 35.83,49.56 C36.75,49.56 37.5466667,49.7033333 38.21,49.9866667 C38.8766667,50.2733333 39.47,50.6633333 39.99,51.15 L39.4366667,51.9266667 C39.3933333,51.9866667 39.35,52.03 39.2966667,52.07 C39.2433333,52.1066667 39.1666667,52.1266667 39.07,52.1266667 C38.9966667,52.1266667 38.9133333,52.1 38.83,52.05 C38.75,51.99 38.6466667,51.9266667 38.53,51.84 C38.4133333,51.7666667 38.2766667,51.6733333 38.12,51.5766667 C37.9633333,51.4833333 37.7766667,51.3966667 37.56,51.3133333 C37.35,51.24 37.0933333,51.1666667 36.81,51.11 C36.5233333,51.0466667 36.1933333,51.0266667 35.8233333,51.0266667 C35.1533333,51.0266667 34.54,51.1433333 33.9833333,51.3733333 C33.4266667,51.6033333 32.9466667,51.93 32.5466667,52.3566667 C32.1466667,52.7833333 31.83,53.2966667 31.6066667,53.9133333 C31.3833333,54.5233333 31.27,55.21 31.27,55.9666667 C31.27,56.7466667 31.3833333,57.4433333 31.6066667,58.0533333 C31.83,58.6666667 32.1366667,59.1833333 32.5233333,59.6033333 C32.91,60.0266667 33.37,60.3466667 33.9,60.57 C34.43,60.79 35,60.9033333 35.6133333,60.9033333 C35.9866667,60.9033333 36.32,60.8833333 36.62,60.8366667 C36.9166667,60.7933333 37.19,60.7233333 37.45,60.6266667 C37.7033333,60.5366667 37.9366667,60.4166667 38.1533333,60.28 C38.3733333,60.1366667 38.5933333,59.9633333 38.8166667,59.7666667 C38.9066667,59.68 39.0033333,59.6366667 39.0966667,59.6366667 L39.0966667,59.6366667 Z" id="Shape"></path>
                    <path d="M48.6533333,51.66 C48.6,51.7433333 48.55,51.8133333 48.4866667,51.8566667 C48.43,51.9033333 48.3533333,51.9266667 48.2633333,51.9266667 C48.1633333,51.9266667 48.05,51.87 47.9166667,51.7766667 C47.7833333,51.68 47.62,51.57 47.42,51.45 C47.22,51.33 46.9766667,51.22 46.6933333,51.1133333 C46.4133333,51.0166667 46.0666667,50.9666667 45.6666667,50.9666667 C45.29,50.9666667 44.95,51.0166667 44.6633333,51.12 C44.37,51.2233333 44.13,51.36 43.9333333,51.5366667 C43.7333333,51.7133333 43.5866667,51.9166667 43.49,52.16 C43.3933333,52.3966667 43.3433333,52.6466667 43.3433333,52.9233333 C43.3433333,53.27 43.4233333,53.5633333 43.6,53.7933333 C43.77,54.0233333 44,54.2233333 44.2833333,54.3866667 C44.5633333,54.55 44.8866667,54.69 45.2433333,54.81 C45.5966667,54.9266667 45.97,55.05 46.3466667,55.18 C46.7166667,55.31 47.09,55.4533333 47.4466667,55.61 C47.8,55.77 48.1233333,55.97 48.4033333,56.22 C48.69,56.4633333 48.9133333,56.7633333 49.0866667,57.1233333 C49.2633333,57.4733333 49.3466667,57.91 49.3466667,58.4333333 C49.3466667,58.98 49.2566667,59.4933333 49.0666667,59.9733333 C48.88,60.46 48.6066667,60.8766667 48.2533333,61.2266667 C47.8966667,61.5766667 47.4533333,61.8566667 46.9333333,62.0666667 C46.4133333,62.27 45.82,62.37 45.1566667,62.37 C44.35,62.37 43.61,62.2233333 42.94,61.93 C42.2733333,61.6366667 41.7066667,61.24 41.23,60.74 L41.7166667,59.94 C41.7633333,59.87 41.82,59.8233333 41.8866667,59.7766667 C41.9566667,59.73 42.03,59.7066667 42.11,59.7066667 C42.2333333,59.7066667 42.3733333,59.7766667 42.5266667,59.9066667 C42.6866667,60.0366667 42.88,60.18 43.1166667,60.3366667 C43.3533333,60.4933333 43.6366667,60.64 43.9766667,60.7733333 C44.31,60.9033333 44.72,60.97 45.2,60.97 C45.6033333,60.97 45.9633333,60.91 46.2733333,60.8033333 C46.5933333,60.6933333 46.8533333,60.5366667 47.0733333,60.3266667 C47.2933333,60.1266667 47.46,59.8866667 47.5733333,59.6066667 C47.69,59.33 47.7533333,59.0166667 47.7533333,58.6733333 C47.7533333,58.2933333 47.6666667,57.9866667 47.4933333,57.7466667 C47.3233333,57.5066667 47.0966667,57.2966667 46.8166667,57.1366667 C46.5366667,56.9733333 46.2166667,56.8366667 45.86,56.72 C45.5066667,56.6066667 45.1366667,56.49 44.7633333,56.3733333 C44.3866667,56.2533333 44.0166667,56.1133333 43.6566667,55.96 C43.3033333,55.7966667 42.98,55.6 42.7,55.34 C42.42,55.0933333 42.1966667,54.7733333 42.0233333,54.4033333 C41.8533333,54.0266667 41.7633333,53.5633333 41.7633333,53.01 C41.7633333,52.5633333 41.8533333,52.1366667 42.0233333,51.7233333 C42.1966667,51.31 42.4466667,50.95 42.7733333,50.6233333 C43.1,50.3033333 43.5033333,50.0466667 43.9833333,49.86 C44.4633333,49.66 45.0166667,49.5733333 45.6366667,49.5733333 C46.34,49.5733333 46.9733333,49.6833333 47.55,49.9066667 C48.13,50.13 48.63,50.45 49.0666667,50.87 L48.6533333,51.66 L48.6533333,51.66 Z" id="Shape"></path>
                    <path d="M50.0533333,49.7 L51.4066667,49.7 C51.5566667,49.7 51.68,49.7366667 51.7733333,49.81 C51.8666667,49.8833333 51.9366667,49.9866667 51.9833333,50.0966667 L55.5233333,58.93 C55.6033333,59.1266667 55.6766667,59.3433333 55.74,59.5766667 C55.81,59.8066667 55.8766667,60.0533333 55.94,60.3033333 C55.9933333,60.0533333 56.0466667,59.81 56.11,59.5766667 C56.1733333,59.3433333 56.2433333,59.1233333 56.32,58.93 L59.8466667,50.0966667 C59.8866667,50 59.9533333,49.9066667 60.0566667,49.8233333 C60.1533333,49.7366667 60.2733333,49.6933333 60.42,49.6933333 L61.7833333,49.6933333 L56.68,62.2166667 L55.15,62.2166667 L50.0533333,49.7 L50.0533333,49.7 Z" id="Shape"></path>
                </g>
            </g>
        </g>
    </g>
</svg>