<?xml version="1.0" encoding="UTF-8" standalone="no"?>
<svg width="74px" height="80px" viewBox="0 0 74 80" version="1.1" xmlns="http://www.w3.org/2000/svg" xmlns:xlink="http://www.w3.org/1999/xlink" xmlns:sketch="http://www.bohemiancoding.com/sketch/ns">
    <!-- Generator: Sketch 3.3 (11970) - http://www.bohemiancoding.com/sketch -->
    <title>noun_68473_cc</title>
    <desc>Created with Sketch.</desc>
    <defs></defs>
    <g id="Page-1" stroke="none" stroke-width="1" fill="none" fill-rule="evenodd" sketch:type="MSPage">
        <g id="Paso-1" sketch:type="MSArtboardGroup" transform="translate(-583.000000, -1224.000000)" fill="#7E7E7E">
            <g id="noun_68473_cc-+-noun_68462_cc-+-noun_68496_cc" sketch:type="MSLayerGroup" transform="translate(376.500000, 1224.000000)">
                <g id="noun_68473_cc" transform="translate(206.500000, 0.000000)" sketch:type="MSShapeGroup">
                    <path d="M58.3333333,80 L1.66666667,80 C0.746666667,80 0,79.25 0,78.3333333 L0,20.2733333 C0,19.8633333 0.15,19.47 0.423333333,19.1633333 L17.09,0.556666667 C17.4066667,0.203333333 17.8566667,0 18.3333333,0 L58.3333333,0 C59.25,0 60,0.746666667 60,1.66666667 L60,40 C60,40.92 59.25,41.6666667 58.3333333,41.6666667 C57.4166667,41.6666667 56.6666667,40.92 56.6666667,40 L56.6666667,3.33333333 L19.08,3.33333333 L3.33333333,20.91 L3.33333333,76.6666667 L56.6666667,76.6666667 L56.6666667,70 C56.6666667,69.0833333 57.4166667,68.3333333 58.3333333,68.3333333 C59.25,68.3333333 60,69.0833333 60,70 L60,78.3333333 C60,79.25 59.25,80 58.3333333,80 L58.3333333,80 Z" id="Shape"></path>
                    <path d="M18.3333333,23.3333333 L3.33333333,23.3333333 C2.41333333,23.3333333 1.66666667,22.5866667 1.66666667,21.6666667 C1.66666667,20.7466667 2.41333333,20 3.33333333,20 L16.6666667,20 L16.6666667,3.33333333 C16.6666667,2.41333333 17.4133333,1.66666667 18.3333333,1.66666667 C19.2533333,1.66666667 20,2.41333333 20,3.33333333 L20,21.6666667 C20,22.5866667 19.2533333,23.3333333 18.3333333,23.3333333 L18.3333333,23.3333333 Z" id="Shape"></path>
                    <path d="M68.3333333,70 L15,70 C12.2433333,70 10,67.7566667 10,65 L10,45 C10,42.2433333 12.2433333,40 15,40 L68.3333333,40 C71.09,40 73.3333333,42.2433333 73.3333333,45 L73.3333333,65 C73.3333333,67.7566667 71.09,70 68.3333333,70 L68.3333333,70 Z M15,43.3333333 C14.08,43.3333333 13.3333333,44.0833333 13.3333333,45 L13.3333333,65 C13.3333333,65.9166667 14.08,66.6666667 15,66.6666667 L68.3333333,66.6666667 C69.25,66.6666667 70,65.9166667 70,65 L70,45 C70,44.0833333 69.25,43.3333333 68.3333333,43.3333333 L15,43.3333333 L15,43.3333333 Z" id="Shape"></path>
                    <path d="M30.0066667,61.26 L28.3033333,61.26 L28.3033333,55.5633333 L21.56,55.5633333 L21.56,61.26 L19.8566667,61.26 L19.8566667,48.74 L21.56,48.74 L21.56,54.3233333 L28.3033333,54.3233333 L28.3033333,48.74 L30.0066667,48.74 L30.0066667,61.26 L30.0066667,61.26 Z" id="Shape"></path>
                    <path d="M41.5966667,48.74 L41.5966667,50.1633333 L37.5533333,50.1633333 L37.5533333,61.26 L35.8566667,61.26 L35.8566667,50.1633333 L31.7933333,50.1633333 L31.7933333,48.74 L41.5966667,48.74 L41.5966667,48.74 Z" id="Shape"></path>
                    <path d="M49.75,57.1733333 C49.8133333,57.33 49.8733333,57.4833333 49.93,57.6433333 C49.9966667,57.48 50.0533333,57.3233333 50.12,57.1733333 C50.19,57.0266667 50.2566667,56.8733333 50.3333333,56.7233333 L54.57,49.02 C54.64,48.8866667 54.7233333,48.8066667 54.8033333,48.7766667 C54.8766667,48.7466667 55.0033333,48.7333333 55.15,48.7333333 L56.3966667,48.7333333 L56.3966667,61.2533333 L54.9166667,61.2533333 L54.9166667,52.0533333 C54.9166667,51.93 54.9233333,51.8 54.93,51.66 C54.9366667,51.52 54.9433333,51.3766667 54.9566667,51.2333333 L50.6666667,59.07 C50.5166667,59.3333333 50.3166667,59.4633333 50.0533333,59.4633333 L49.8066667,59.4633333 C49.54,59.4633333 49.3333333,59.3333333 49.1866667,59.07 L44.8066667,51.2133333 C44.82,51.3666667 44.8366667,51.5166667 44.8466667,51.66 C44.8533333,51.81 44.86,51.94 44.86,52.0633333 L44.86,61.2666667 L43.3733333,61.2666667 L43.3733333,48.7433333 L44.6233333,48.7433333 C44.7766667,48.7433333 44.89,48.7566667 44.9733333,48.79 C45.0533333,48.82 45.1333333,48.9 45.2033333,49.03 L49.5266667,56.74 C49.6166667,56.8766667 49.69,57.0166667 49.75,57.1733333 L49.75,57.1733333 Z" id="Shape"></path>
                    <path d="M61.1533333,59.8366667 L66.57,59.8366667 L66.57,61.26 L59.4533333,61.26 L59.4533333,48.74 L61.1533333,48.74 L61.1533333,59.8366667 L61.1533333,59.8366667 Z" id="Shape"></path>
                </g>
            </g>
        </g>
    </g>
</svg>