<?xml version="1.0" encoding="UTF-8" standalone="no"?>
<svg width="75px" height="80px" viewBox="0 0 75 80" version="1.1" xmlns="http://www.w3.org/2000/svg" xmlns:xlink="http://www.w3.org/1999/xlink" xmlns:sketch="http://www.bohemiancoding.com/sketch/ns">
    <!-- Generator: Sketch 3.3 (11970) - http://www.bohemiancoding.com/sketch -->
    <title>noun_68462_cc copy</title>
    <desc>Created with Sketch.</desc>
    <defs></defs>
    <g id="Page-1" stroke="none" stroke-width="1" fill="none" fill-rule="evenodd" sketch:type="MSPage">
        <g id="Paso-1" sketch:type="MSArtboardGroup" transform="translate(-1081.000000, -1224.000000)" fill="#7E7E7E">
            <g id="noun_68473_cc-+-noun_68462_cc-+-noun_68496_cc" sketch:type="MSLayerGroup" transform="translate(284.000000, 1224.000000)">
                <g id="Group">
                    <g id="noun_68462_cc-copy" transform="translate(797.000000, 0.000000)">
                        <path d="M58.3333333,80 L1.66666667,80 C0.746666667,80 0,79.25 0,78.3333333 L0,20.2733333 C0,19.8633333 0.15,19.47 0.423333333,19.1633333 L17.09,0.556666667 C17.4066667,0.203333333 17.8566667,0 18.3333333,0 L58.3333333,0 C59.25,0 60,0.746666667 60,1.66666667 L60,40 C60,40.92 59.25,41.6666667 58.3333333,41.6666667 C57.4166667,41.6666667 56.6666667,40.92 56.6666667,40 L56.6666667,3.33333333 L19.08,3.33333333 L3.33333333,20.91 L3.33333333,76.6666667 L56.6666667,76.6666667 L56.6666667,70 C56.6666667,69.0833333 57.4166667,68.3333333 58.3333333,68.3333333 C59.25,68.3333333 60,69.0833333 60,70 L60,78.3333333 C60,79.25 59.25,80 58.3333333,80 L58.3333333,80 Z" id="Shape" sketch:type="MSShapeGroup"></path>
                        <path d="M18.3333333,23.3333333 L3.33333333,23.3333333 C2.41333333,23.3333333 1.66666667,22.5866667 1.66666667,21.6666667 C1.66666667,20.7466667 2.41333333,20 3.33333333,20 L16.6666667,20 L16.6666667,3.33333333 C16.6666667,2.41333333 17.4133333,1.66666667 18.3333333,1.66666667 C19.2533333,1.66666667 20,2.41333333 20,3.33333333 L20,21.6666667 C20,22.5866667 19.2533333,23.3333333 18.3333333,23.3333333 L18.3333333,23.3333333 Z" id="Shape" sketch:type="MSShapeGroup"></path>
                        <path d="M69,70 L21,70 C17.692,70 15,67.7566667 15,65 L15,45 C15,42.2433333 17.692,40 21,40 L69,40 C72.308,40 75,42.2433333 75,45 L75,65 C75,67.7566667 72.308,70 69,70 L69,70 Z M21,43.3333333 C19.896,43.3333333 19,44.0833333 19,45 L19,65 C19,65.9166667 19.896,66.6666667 21,66.6666667 L69,66.6666667 C70.1,66.6666667 71,65.9166667 71,65 L71,45 C71,44.0833333 70.1,43.3333333 69,43.3333333 L21,43.3333333 L21,43.3333333 Z" id="Shape" sketch:type="MSShapeGroup"></path>
                        <text id="JSON" sketch:type="MSTextLayer" font-family="Helvetica Neue" font-size="14" font-weight="420" letter-spacing="1.89999998">
                            <tspan x="24" y="60">JSO</tspan>
                            <tspan x="56.9299999" y="60">N</tspan>
                        </text>
                    </g>
                </g>
            </g>
        </g>
    </g>
</svg>