<?xml version="1.0" encoding="UTF-8" standalone="no"?>
<svg width="70px" height="80px" viewBox="0 0 70 80" version="1.1" xmlns="http://www.w3.org/2000/svg" xmlns:xlink="http://www.w3.org/1999/xlink" xmlns:sketch="http://www.bohemiancoding.com/sketch/ns">
    <!-- Generator: Sketch 3.3 (11970) - http://www.bohemiancoding.com/sketch -->
    <title>noun_68496_cc</title>
    <desc>Created with Sketch.</desc>
    <defs></defs>
    <g id="Page-1" stroke="none" stroke-width="1" fill="none" fill-rule="evenodd" sketch:type="MSPage">
        <g id="Paso-1" sketch:type="MSArtboardGroup" transform="translate(-789.000000, -1224.000000)" fill="#7E7E7E">
            <g id="noun_68473_cc-+-noun_68462_cc-+-noun_68496_cc" sketch:type="MSLayerGroup" transform="translate(376.500000, 1224.000000)">
                <g id="noun_68496_cc" transform="translate(412.500000, 0.000000)" sketch:type="MSShapeGroup">
                    <path d="M58.3333333,80 L1.66666667,80 C0.75,80 0,79.25 0,78.3333333 L0,20.2733333 C0,19.8633333 0.153333333,19.47 0.426666667,19.1633333 L17.0933333,0.556666667 C17.41,0.203333333 17.8566667,0 18.3333333,0 L58.3333333,0 C59.25,0 60,0.746666667 60,1.66666667 L60,40 C60,40.92 59.25,41.6666667 58.3333333,41.6666667 C57.4166667,41.6666667 56.6666667,40.92 56.6666667,40 L56.6666667,3.33333333 L19.0833333,3.33333333 L3.33333333,20.91 L3.33333333,76.6666667 L56.6666667,76.6666667 L56.6666667,70 C56.6666667,69.0833333 57.4166667,68.3333333 58.3333333,68.3333333 C59.25,68.3333333 60,69.0833333 60,70 L60,78.3333333 C60,79.25 59.25,80 58.3333333,80 L58.3333333,80 Z" id="Shape"></path>
                    <path d="M18.3333333,23.3333333 L3.33333333,23.3333333 C2.41666667,23.3333333 1.66666667,22.5866667 1.66666667,21.6666667 C1.66666667,20.7466667 2.41666667,20 3.33333333,20 L16.6666667,20 L16.6666667,3.33333333 C16.6666667,2.41333333 17.4166667,1.66666667 18.3333333,1.66666667 C19.25,1.66666667 20,2.41333333 20,3.33333333 L20,21.6666667 C20,22.5866667 19.25,23.3333333 18.3333333,23.3333333 L18.3333333,23.3333333 Z" id="Shape"></path>
                    <path d="M65,70 L25,70 C22.2433333,70 20,67.7566667 20,65 L20,45 C20,42.2433333 22.2433333,40 25,40 L65,40 C67.7566667,40 70,42.2433333 70,45 L70,65 C70,67.7566667 67.7566667,70 65,70 L65,70 Z M25,43.3333333 C24.0833333,43.3333333 23.3333333,44.0833333 23.3333333,45 L23.3333333,65 C23.3333333,65.9166667 24.0833333,66.6666667 25,66.6666667 L65,66.6666667 C65.9166667,66.6666667 66.6666667,65.9166667 66.6666667,65 L66.6666667,45 C66.6666667,44.0833333 65.9166667,43.3333333 65,43.3333333 L25,43.3333333 L25,43.3333333 Z" id="Shape"></path>
                    <path d="M40.0533333,49.1466667 L40.0533333,50.57 L36.0033333,50.57 L36.0033333,61.6666667 L34.31,61.6666667 L34.31,50.57 L30.2466667,50.57 L30.2466667,49.1466667 L40.0533333,49.1466667 L40.0533333,49.1466667 Z" id="Shape"></path>
                    <path d="M44.7433333,55.2366667 L40.6133333,49.1466667 L42.3,49.1466667 C42.4233333,49.1466667 42.51,49.1666667 42.5666667,49.2133333 C42.63,49.2566667 42.6766667,49.31 42.73,49.3866667 L45.9933333,54.4033333 C46.0433333,54.28 46.0966667,54.1466667 46.1866667,54.0033333 L49.2666667,49.4233333 C49.3233333,49.3433333 49.3766667,49.2766667 49.4433333,49.22 C49.51,49.17 49.5766667,49.15 49.6633333,49.15 L51.2733333,49.15 L47.1233333,55.1633333 L51.4133333,61.6733333 L49.7366667,61.6733333 C49.6066667,61.6733333 49.5133333,61.64 49.4333333,61.5733333 C49.3533333,61.5066667 49.3,61.4333333 49.25,61.35 L45.89,56.1033333 C45.8466667,56.2266667 45.8033333,56.3433333 45.7333333,56.45 L42.47,61.3533333 C42.41,61.4333333 42.3566667,61.51 42.2866667,61.5733333 C42.2166667,61.6366667 42.1233333,61.6733333 42,61.6733333 L40.4333333,61.6733333 L44.7433333,55.2366667 L44.7433333,55.2366667 Z" id="Shape"></path>
                    <path d="M61.5966667,49.1466667 L61.5966667,50.57 L57.5533333,50.57 L57.5533333,61.6666667 L55.8566667,61.6666667 L55.8566667,50.57 L51.79,50.57 L51.79,49.1466667 L61.5966667,49.1466667 L61.5966667,49.1466667 Z" id="Shape"></path>
                </g>
            </g>
        </g>
    </g>
</svg>