<?xml version="1.0" encoding="UTF-8" standalone="no"?>
<svg width="60px" height="69px" viewBox="0 0 60 69" version="1.1" xmlns="http://www.w3.org/2000/svg" xmlns:xlink="http://www.w3.org/1999/xlink" xmlns:sketch="http://www.bohemiancoding.com/sketch/ns">
    <!-- Generator: Sketch 3.3 (11970) - http://www.bohemiancoding.com/sketch -->
    <title>noun_68463_cc</title>
    <desc>Created with Sketch.</desc>
    <defs></defs>
    <g id="Page-1" stroke="none" stroke-width="1" fill="none" fill-rule="evenodd" sketch:type="MSPage">
        <g id="Paso-1" sketch:type="MSArtboardGroup" transform="translate(-690.000000, -710.000000)" fill="#187C69">
            <g id="Arrastra-un-archivo--+-รณ-seleccionalo-desde-+-noun_68463_cc" sketch:type="MSLayerGroup" transform="translate(508.000000, 710.000000)">
                <g id="noun_68463_cc" transform="translate(182.000000, 0.000000)" sketch:type="MSShapeGroup">
                    <path d="M50,68.5714286 L1.42857143,68.5714286 C0.64,68.5714286 0,67.9285714 0,67.1428571 L0,17.3771429 C0,17.0257143 0.128571429,16.6885714 0.362857143,16.4257143 L14.6485714,0.477142857 C14.92,0.174285714 15.3057143,0 15.7142857,0 L50,0 C50.7857143,0 51.4285714,0.64 51.4285714,1.42857143 L51.4285714,34.2857143 C51.4285714,35.0742857 50.7857143,35.7142857 50,35.7142857 C49.2142857,35.7142857 48.5714286,35.0742857 48.5714286,34.2857143 L48.5714286,2.85714286 L16.3542857,2.85714286 L2.85714286,17.9228571 L2.85714286,65.7142857 L48.5714286,65.7142857 L48.5714286,60 C48.5714286,59.2142857 49.2142857,58.5714286 50,58.5714286 C50.7857143,58.5714286 51.4285714,59.2142857 51.4285714,60 L51.4285714,67.1428571 C51.4285714,67.9285714 50.7857143,68.5714286 50,68.5714286 L50,68.5714286 Z" id="Shape"></path>
                    <path d="M15.7142857,20 L2.85714286,20 C2.06857143,20 1.42857143,19.36 1.42857143,18.5714286 C1.42857143,17.7828571 2.06857143,17.1428571 2.85714286,17.1428571 L14.2857143,17.1428571 L14.2857143,2.85714286 C14.2857143,2.06857143 14.9257143,1.42857143 15.7142857,1.42857143 C16.5028571,1.42857143 17.1428571,2.06857143 17.1428571,2.85714286 L17.1428571,18.5714286 C17.1428571,19.36 16.5028571,20 15.7142857,20 L15.7142857,20 Z" id="Shape"></path>
                    <path d="M55.7142857,60 L21.4285714,60 C19.0657143,60 17.1428571,58.0771429 17.1428571,55.7142857 L17.1428571,38.5714286 C17.1428571,36.2085714 19.0657143,34.2857143 21.4285714,34.2857143 L55.7142857,34.2857143 C58.0771429,34.2857143 60,36.2085714 60,38.5714286 L60,55.7142857 C60,58.0771429 58.0771429,60 55.7142857,60 L55.7142857,60 Z M21.4285714,37.1428571 C20.64,37.1428571 20,37.7857143 20,38.5714286 L20,55.7142857 C20,56.5 20.64,57.1428571 21.4285714,57.1428571 L55.7142857,57.1428571 C56.5,57.1428571 57.1428571,56.5 57.1428571,55.7142857 L57.1428571,38.5714286 C57.1428571,37.7857143 56.5,37.1428571 55.7142857,37.1428571 L21.4285714,37.1428571 L21.4285714,37.1428571 Z" id="Shape"></path>
                    <path d="M29.5114286,46.9971429 L25.9685714,41.7742857 L27.4142857,41.7742857 C27.52,41.7742857 27.5942857,41.7914286 27.6457143,41.8314286 C27.6971429,41.8685714 27.74,41.9142857 27.78,41.98 L30.58,46.28 C30.6142857,46.1742857 30.6685714,46.06 30.7371429,45.9371429 L33.3828571,42.0114286 C33.4285714,41.94 33.4742857,41.8857143 33.5285714,41.8342857 C33.58,41.7914286 33.6457143,41.7742857 33.7171429,41.7742857 L35.1028571,41.7742857 L31.5457143,46.9285714 L35.2228571,52.5085714 L33.7857143,52.5085714 C33.6742857,52.5085714 33.5914286,52.4771429 33.5257143,52.4228571 C33.4657143,52.3657143 33.4142857,52.3028571 33.3742857,52.2342857 L30.4942857,47.7342857 C30.46,47.84 30.4142857,47.9371429 30.36,48.0314286 L27.56,52.2314286 C27.5142857,52.3028571 27.4628571,52.3685714 27.4057143,52.4228571 C27.3485714,52.4828571 27.2685714,52.5085714 27.1628571,52.5085714 L25.8142857,52.5085714 L29.5114286,46.9971429 L29.5114286,46.9971429 Z" id="Shape"></path>
                    <path d="M38.1028571,51.2885714 L42.7457143,51.2885714 L42.7457143,52.5085714 L36.6485714,52.5085714 L36.6485714,41.7771429 L38.1028571,41.7771429 L38.1028571,51.2885714 L38.1028571,51.2885714 Z" id="Shape"></path>
                    <path d="M49.8428571,43.4542857 C49.7971429,43.5257143 49.7514286,43.5857143 49.6971429,43.6228571 C49.6485714,43.6628571 49.5857143,43.6828571 49.5057143,43.6828571 C49.42,43.6828571 49.3257143,43.64 49.2085714,43.5571429 C49.0971429,43.4714286 48.9542857,43.3771429 48.7857143,43.2714286 C48.6114286,43.1714286 48.4057143,43.08 48.16,42.9914286 C47.92,42.9085714 47.6228571,42.8657143 47.28,42.8657143 C46.96,42.8657143 46.6685714,42.9171429 46.42,42.9971429 C46.1714286,43.0828571 45.9628571,43.2028571 45.7914286,43.3542857 C45.6228571,43.5057143 45.4971429,43.68 45.4171429,43.8885714 C45.3342857,44.0914286 45.2885714,44.3057143 45.2885714,44.5428571 C45.2885714,44.84 45.36,45.0914286 45.5114286,45.2885714 C45.6571429,45.4857143 45.8514286,45.6571429 46.0942857,45.7971429 C46.3342857,45.9342857 46.6114286,46.0571429 46.9171429,46.16 C47.2228571,46.26 47.5428571,46.3657143 47.8628571,46.4771429 C48.1828571,46.5885714 48.5028571,46.7114286 48.8057143,46.8457143 C49.1085714,46.9828571 49.3885714,47.1542857 49.6285714,47.3685714 C49.8714286,47.5771429 50.0628571,47.8342857 50.2142857,48.1428571 C50.3628571,48.4428571 50.4371429,48.8171429 50.4371429,49.2657143 C50.4371429,49.7371429 50.3571429,50.1742857 50.1971429,50.5857143 C50.0342857,51.0028571 49.8,51.36 49.4971429,51.6628571 C49.1914286,51.9657143 48.8114286,52.2057143 48.3657143,52.38 C47.92,52.5542857 47.4114286,52.6428571 46.8428571,52.6428571 C46.1457143,52.6428571 45.5142857,52.5171429 44.94,52.2657143 C44.3657143,52.0142857 43.88,51.6714286 43.4742857,51.2428571 L43.8942857,50.5571429 C43.9342857,50.4971429 43.9828571,50.4571429 44.04,50.4171429 C44.0971429,50.38 44.16,50.36 44.2285714,50.36 C44.3342857,50.36 44.4571429,50.4171429 44.5857143,50.5285714 C44.72,50.6457143 44.8885714,50.7685714 45.0942857,50.9028571 C45.2942857,51.0371429 45.54,51.16 45.8285714,51.2714286 C46.1171429,51.3828571 46.4742857,51.4285714 46.8857143,51.4285714 C47.2314286,51.4285714 47.54,51.3771429 47.8057143,51.2857143 C48.0771429,51.1914286 48.3028571,51.0571429 48.4914286,50.8771429 C48.6771429,50.7057143 48.82,50.5 48.92,50.26 C49.02,50.0228571 49.0714286,49.7542857 49.0714286,49.4571429 C49.0714286,49.1342857 49,48.8685714 48.8485714,48.66 C48.7028571,48.4571429 48.5085714,48.28 48.2685714,48.14 C48.0285714,48 47.7542857,47.8828571 47.4485714,47.7857143 C47.1457143,47.6885714 46.8285714,47.5885714 46.5057143,47.4885714 C46.1857143,47.3857143 45.8685714,47.2657143 45.5628571,47.1314286 C45.2571429,46.9942857 44.9828571,46.8228571 44.7428571,46.6 C44.5028571,46.3857143 44.3085714,46.1171429 44.1628571,45.7942857 C44.0114286,45.4742857 43.94,45.0742857 43.94,44.6 C43.94,44.22 44.0114286,43.8542857 44.1628571,43.5 C44.3085714,43.1428571 44.5228571,42.8371429 44.8057143,42.5542857 C45.0857143,42.28 45.4314286,42.06 45.84,41.9 C46.2514286,41.7285714 46.7257143,41.6542857 47.26,41.6542857 C47.86,41.6542857 48.4028571,41.7485714 48.9,41.94 C49.3942857,42.1314286 49.8257143,42.4057143 50.1942857,42.7657143 L49.8428571,43.4542857 L49.8428571,43.4542857 Z" id="Shape"></path>
                </g>
            </g>
        </g>
    </g>
</svg>