<?xml version="1.0" encoding="UTF-8" standalone="no"?>
<svg width="67px" height="69px" viewBox="0 0 67 69" version="1.1" xmlns="http://www.w3.org/2000/svg" xmlns:xlink="http://www.w3.org/1999/xlink" xmlns:sketch="http://www.bohemiancoding.com/sketch/ns">
    <!-- Generator: Sketch 3.3 (11970) - http://www.bohemiancoding.com/sketch -->
    <title>noun_68463_cc copy</title>
    <desc>Created with Sketch.</desc>
    <defs></defs>
    <g id="Page-1" stroke="none" stroke-width="1" fill="none" fill-rule="evenodd" sketch:type="MSPage">
        <g id="Paso-1" sketch:type="MSArtboardGroup" transform="translate(-790.000000, -710.000000)" fill="#187C69">
            <g id="Arrastra-un-archivo--+-รณ-seleccionalo-desde-+-noun_68463_cc" sketch:type="MSLayerGroup" transform="translate(508.000000, 710.000000)">
                <g id="noun_68463_cc-copy" transform="translate(282.000000, 0.000000)" sketch:type="MSShapeGroup">
                    <path d="M50,68.5714286 L1.42857143,68.5714286 C0.64,68.5714286 0,67.9285714 0,67.1428571 L0,17.3771429 C0,17.0257143 0.128571429,16.6885714 0.362857143,16.4257143 L14.6485714,0.477142857 C14.92,0.174285714 15.3057143,0 15.7142857,0 L50,0 C50.7857143,0 51.4285714,0.64 51.4285714,1.42857143 L51.4285714,34.2857143 C51.4285714,35.0742857 50.7857143,35.7142857 50,35.7142857 C49.2142857,35.7142857 48.5714286,35.0742857 48.5714286,34.2857143 L48.5714286,2.85714286 L16.3542857,2.85714286 L2.85714286,17.9228571 L2.85714286,65.7142857 L48.5714286,65.7142857 L48.5714286,60 C48.5714286,59.2142857 49.2142857,58.5714286 50,58.5714286 C50.7857143,58.5714286 51.4285714,59.2142857 51.4285714,60 L51.4285714,67.1428571 C51.4285714,67.9285714 50.7857143,68.5714286 50,68.5714286 L50,68.5714286 Z" id="Shape"></path>
                    <path d="M15.7142857,20 L2.85714286,20 C2.06857143,20 1.42857143,19.36 1.42857143,18.5714286 C1.42857143,17.7828571 2.06857143,17.1428571 2.85714286,17.1428571 L14.2857143,17.1428571 L14.2857143,2.85714286 C14.2857143,2.06857143 14.9257143,1.42857143 15.7142857,1.42857143 C16.5028571,1.42857143 17.1428571,2.06857143 17.1428571,2.85714286 L17.1428571,18.5714286 C17.1428571,19.36 16.5028571,20 15.7142857,20 L15.7142857,20 Z" id="Shape"></path>
                    <path d="M61.2857143,60 L20.1428571,60 C17.3074286,60 15,58.0771429 15,55.7142857 L15,38.5714286 C15,36.2085714 17.3074286,34.2857143 20.1428571,34.2857143 L61.2857143,34.2857143 C64.1211429,34.2857143 66.4285714,36.2085714 66.4285714,38.5714286 L66.4285714,55.7142857 C66.4285714,58.0771429 64.1211429,60 61.2857143,60 L61.2857143,60 Z M20.1428571,37.1428571 C19.1965714,37.1428571 18.4285714,37.7857143 18.4285714,38.5714286 L18.4285714,55.7142857 C18.4285714,56.5 19.1965714,57.1428571 20.1428571,57.1428571 L61.2857143,57.1428571 C62.2285714,57.1428571 63,56.5 63,55.7142857 L63,38.5714286 C63,37.7857143 62.2285714,37.1428571 61.2857143,37.1428571 L20.1428571,37.1428571 L20.1428571,37.1428571 Z" id="Shape"></path>
                    <path d="M27.5114286,46.9971429 L23.9685714,41.7742857 L25.4142857,41.7742857 C25.52,41.7742857 25.5942857,41.7914286 25.6457143,41.8314286 C25.6971429,41.8685714 25.74,41.9142857 25.78,41.98 L28.58,46.28 C28.6142857,46.1742857 28.6685714,46.06 28.7371429,45.9371429 L31.3828571,42.0114286 C31.4285714,41.94 31.4742857,41.8857143 31.5285714,41.8342857 C31.58,41.7914286 31.6457143,41.7742857 31.7171429,41.7742857 L33.1028571,41.7742857 L29.5457143,46.9285714 L33.2228571,52.5085714 L31.7857143,52.5085714 C31.6742857,52.5085714 31.5914286,52.4771429 31.5257143,52.4228571 C31.4657143,52.3657143 31.4142857,52.3028571 31.3742857,52.2342857 L28.4942857,47.7342857 C28.46,47.84 28.4142857,47.9371429 28.36,48.0314286 L25.56,52.2314286 C25.5142857,52.3028571 25.4628571,52.3685714 25.4057143,52.4228571 C25.3485714,52.4828571 25.2685714,52.5085714 25.1628571,52.5085714 L23.8142857,52.5085714 L27.5114286,46.9971429 L27.5114286,46.9971429 Z" id="Shape"></path>
                    <path d="M53.5114286,46.9971429 L49.9685714,41.7742857 L51.4142857,41.7742857 C51.52,41.7742857 51.5942857,41.7914286 51.6457143,41.8314286 C51.6971429,41.8685714 51.74,41.9142857 51.78,41.98 L54.58,46.28 C54.6142857,46.1742857 54.6685714,46.06 54.7371429,45.9371429 L57.3828571,42.0114286 C57.4285714,41.94 57.4742857,41.8857143 57.5285714,41.8342857 C57.58,41.7914286 57.6457143,41.7742857 57.7171429,41.7742857 L59.1028571,41.7742857 L55.5457143,46.9285714 L59.2228571,52.5085714 L57.7857143,52.5085714 C57.6742857,52.5085714 57.5914286,52.4771429 57.5257143,52.4228571 C57.4657143,52.3657143 57.4142857,52.3028571 57.3742857,52.2342857 L54.4942857,47.7342857 C54.46,47.84 54.4142857,47.9371429 54.36,48.0314286 L51.56,52.2314286 C51.5142857,52.3028571 51.4628571,52.3685714 51.4057143,52.4228571 C51.3485714,52.4828571 51.2685714,52.5085714 51.1628571,52.5085714 L49.8142857,52.5085714 L53.5114286,46.9971429 L53.5114286,46.9971429 Z" id="Shape-Copy-2"></path>
                    <path d="M36.1028571,51.2885714 L40.7457143,51.2885714 L40.7457143,52.5085714 L34.6485714,52.5085714 L34.6485714,41.7771429 L36.1028571,41.7771429 L36.1028571,51.2885714 L36.1028571,51.2885714 Z" id="Shape"></path>
                    <path d="M47.8428571,43.4542857 C47.7971429,43.5257143 47.7514286,43.5857143 47.6971429,43.6228571 C47.6485714,43.6628571 47.5857143,43.6828571 47.5057143,43.6828571 C47.42,43.6828571 47.3257143,43.64 47.2085714,43.5571429 C47.0971429,43.4714286 46.9542857,43.3771429 46.7857143,43.2714286 C46.6114286,43.1714286 46.4057143,43.08 46.16,42.9914286 C45.92,42.9085714 45.6228571,42.8657143 45.28,42.8657143 C44.96,42.8657143 44.6685714,42.9171429 44.42,42.9971429 C44.1714286,43.0828571 43.9628571,43.2028571 43.7914286,43.3542857 C43.6228571,43.5057143 43.4971429,43.68 43.4171429,43.8885714 C43.3342857,44.0914286 43.2885714,44.3057143 43.2885714,44.5428571 C43.2885714,44.84 43.36,45.0914286 43.5114286,45.2885714 C43.6571429,45.4857143 43.8514286,45.6571429 44.0942857,45.7971429 C44.3342857,45.9342857 44.6114286,46.0571429 44.9171429,46.16 C45.2228571,46.26 45.5428571,46.3657143 45.8628571,46.4771429 C46.1828571,46.5885714 46.5028571,46.7114286 46.8057143,46.8457143 C47.1085714,46.9828571 47.3885714,47.1542857 47.6285714,47.3685714 C47.8714286,47.5771429 48.0628571,47.8342857 48.2142857,48.1428571 C48.3628571,48.4428571 48.4371429,48.8171429 48.4371429,49.2657143 C48.4371429,49.7371429 48.3571429,50.1742857 48.1971429,50.5857143 C48.0342857,51.0028571 47.8,51.36 47.4971429,51.6628571 C47.1914286,51.9657143 46.8114286,52.2057143 46.3657143,52.38 C45.92,52.5542857 45.4114286,52.6428571 44.8428571,52.6428571 C44.1457143,52.6428571 43.5142857,52.5171429 42.94,52.2657143 C42.3657143,52.0142857 41.88,51.6714286 41.4742857,51.2428571 L41.8942857,50.5571429 C41.9342857,50.4971429 41.9828571,50.4571429 42.04,50.4171429 C42.0971429,50.38 42.16,50.36 42.2285714,50.36 C42.3342857,50.36 42.4571429,50.4171429 42.5857143,50.5285714 C42.72,50.6457143 42.8885714,50.7685714 43.0942857,50.9028571 C43.2942857,51.0371429 43.54,51.16 43.8285714,51.2714286 C44.1171429,51.3828571 44.4742857,51.4285714 44.8857143,51.4285714 C45.2314286,51.4285714 45.54,51.3771429 45.8057143,51.2857143 C46.0771429,51.1914286 46.3028571,51.0571429 46.4914286,50.8771429 C46.6771429,50.7057143 46.82,50.5 46.92,50.26 C47.02,50.0228571 47.0714286,49.7542857 47.0714286,49.4571429 C47.0714286,49.1342857 47,48.8685714 46.8485714,48.66 C46.7028571,48.4571429 46.5085714,48.28 46.2685714,48.14 C46.0285714,48 45.7542857,47.8828571 45.4485714,47.7857143 C45.1457143,47.6885714 44.8285714,47.5885714 44.5057143,47.4885714 C44.1857143,47.3857143 43.8685714,47.2657143 43.5628571,47.1314286 C43.2571429,46.9942857 42.9828571,46.8228571 42.7428571,46.6 C42.5028571,46.3857143 42.3085714,46.1171429 42.1628571,45.7942857 C42.0114286,45.4742857 41.94,45.0742857 41.94,44.6 C41.94,44.22 42.0114286,43.8542857 42.1628571,43.5 C42.3085714,43.1428571 42.5228571,42.8371429 42.8057143,42.5542857 C43.0857143,42.28 43.4314286,42.06 43.84,41.9 C44.2514286,41.7285714 44.7257143,41.6542857 45.26,41.6542857 C45.86,41.6542857 46.4028571,41.7485714 46.9,41.94 C47.3942857,42.1314286 47.8257143,42.4057143 48.1942857,42.7657143 L47.8428571,43.4542857 L47.8428571,43.4542857 Z" id="Shape"></path>
                </g>
            </g>
        </g>
    </g>
</svg>