<?xml version="1.0" encoding="UTF-8" standalone="no"?>
<svg width="74px" height="80px" viewBox="0 0 74 80" version="1.1" xmlns="http://www.w3.org/2000/svg" xmlns:xlink="http://www.w3.org/1999/xlink" xmlns:sketch="http://www.bohemiancoding.com/sketch/ns">
    <!-- Generator: Sketch 3.3 (11970) - http://www.bohemiancoding.com/sketch -->
    <title>noun_68473_cc copy</title>
    <desc>Created with Sketch.</desc>
    <defs></defs>
    <g id="Page-1" stroke="none" stroke-width="1" fill="none" fill-rule="evenodd" sketch:type="MSPage">
        <g id="Paso-1" sketch:type="MSArtboardGroup" transform="translate(-377.000000, -1224.000000)" fill="#7E7E7E">
            <g id="noun_68473_cc-+-noun_68462_cc-+-noun_68496_cc" sketch:type="MSLayerGroup" transform="translate(376.500000, 1224.000000)">
                <g id="noun_68473_cc-copy" transform="translate(0.666667, 0.000000)" sketch:type="MSShapeGroup">
                    <path d="M58.3333333,80 L1.66666667,80 C0.746666667,80 0,79.25 0,78.3333333 L0,20.2733333 C0,19.8633333 0.15,19.47 0.423333333,19.1633333 L17.09,0.556666667 C17.4066667,0.203333333 17.8566667,0 18.3333333,0 L58.3333333,0 C59.25,0 60,0.746666667 60,1.66666667 L60,40 C60,40.92 59.25,41.6666667 58.3333333,41.6666667 C57.4166667,41.6666667 56.6666667,40.92 56.6666667,40 L56.6666667,3.33333333 L19.08,3.33333333 L3.33333333,20.91 L3.33333333,76.6666667 L56.6666667,76.6666667 L56.6666667,70 C56.6666667,69.0833333 57.4166667,68.3333333 58.3333333,68.3333333 C59.25,68.3333333 60,69.0833333 60,70 L60,78.3333333 C60,79.25 59.25,80 58.3333333,80 L58.3333333,80 Z" id="Shape"></path>
                    <path d="M18.3333333,23.3333333 L3.33333333,23.3333333 C2.41333333,23.3333333 1.66666667,22.5866667 1.66666667,21.6666667 C1.66666667,20.7466667 2.41333333,20 3.33333333,20 L16.6666667,20 L16.6666667,3.33333333 C16.6666667,2.41333333 17.4133333,1.66666667 18.3333333,1.66666667 C19.2533333,1.66666667 20,2.41333333 20,3.33333333 L20,21.6666667 C20,22.5866667 19.2533333,23.3333333 18.3333333,23.3333333 L18.3333333,23.3333333 Z" id="Shape"></path>
                    <path d="M68.3333333,70 L15,70 C12.2433333,70 10,67.7566667 10,65 L10,45 C10,42.2433333 12.2433333,40 15,40 L68.3333333,40 C71.09,40 73.3333333,42.2433333 73.3333333,45 L73.3333333,65 C73.3333333,67.7566667 71.09,70 68.3333333,70 L68.3333333,70 Z M15,43.3333333 C14.08,43.3333333 13.3333333,44.0833333 13.3333333,45 L13.3333333,65 C13.3333333,65.9166667 14.08,66.6666667 15,66.6666667 L68.3333333,66.6666667 C69.25,66.6666667 70,65.9166667 70,65 L70,45 C70,44.0833333 69.25,43.3333333 68.3333333,43.3333333 L15,43.3333333 L15,43.3333333 Z" id="Shape"></path>
                    <path d="M43.75,57.3766667 C43.8133333,57.5333333 43.8733333,57.6866667 43.93,57.8466667 C43.9966667,57.6833333 44.0533333,57.5266667 44.12,57.3766667 C44.19,57.23 44.2566667,57.0766667 44.3333333,56.9266667 L48.57,49.2233333 C48.64,49.09 48.7233333,49.01 48.8033333,48.98 C48.8766667,48.95 49.0033333,48.9366667 49.15,48.9366667 L50.3966667,48.9366667 L50.3966667,61.4566667 L48.9166667,61.4566667 L48.9166667,52.2566667 C48.9166667,52.1333333 48.9233333,52.0033333 48.93,51.8633333 C48.9366667,51.7233333 48.9433333,51.58 48.9566667,51.4366667 L44.6666667,59.2733333 C44.5166667,59.5366667 44.3166667,59.6666667 44.0533333,59.6666667 L43.8066667,59.6666667 C43.54,59.6666667 43.3333333,59.5366667 43.1866667,59.2733333 L38.8066667,51.4166667 C38.82,51.57 38.8366667,51.72 38.8466667,51.8633333 C38.8533333,52.0133333 38.86,52.1433333 38.86,52.2666667 L38.86,61.47 L37.3733333,61.47 L37.3733333,48.9466667 L38.6233333,48.9466667 C38.7766667,48.9466667 38.89,48.96 38.9733333,48.9933333 C39.0533333,49.0233333 39.1333333,49.1033333 39.2033333,49.2333333 L43.5266667,56.9433333 C43.6166667,57.08 43.69,57.22 43.75,57.3766667 L43.75,57.3766667 Z" id="Shape"></path>
                    <path d="M28.0766667,55.03 L23.9466667,48.94 L25.6333333,48.94 C25.7566667,48.94 25.8433333,48.96 25.9,49.0066667 C25.9633333,49.05 26.01,49.1033333 26.0633333,49.18 L29.3266667,54.1966667 C29.3766667,54.0733333 29.43,53.94 29.52,53.7966667 L32.6,49.2166667 C32.6566667,49.1366667 32.71,49.07 32.7766667,49.0133333 C32.8433333,48.9633333 32.91,48.9433333 32.9966667,48.9433333 L34.6066667,48.9433333 L30.4566667,54.9566667 L34.7466667,61.4666667 L33.07,61.4666667 C32.94,61.4666667 32.8466667,61.4333333 32.7666667,61.3666667 C32.6866667,61.3 32.6333333,61.2266667 32.5833333,61.1433333 L29.2233333,55.8966667 C29.18,56.02 29.1366667,56.1366667 29.0666667,56.2433333 L25.8033333,61.1466667 C25.7433333,61.2266667 25.69,61.3033333 25.62,61.3666667 C25.55,61.43 25.4566667,61.4666667 25.3333333,61.4666667 L23.7666667,61.4666667 L28.0766667,55.03 L28.0766667,55.03 Z" id="Shape-Copy"></path>
                    <path d="M55.1533333,60.04 L60.57,60.04 L60.57,61.4633333 L53.4533333,61.4633333 L53.4533333,48.9433333 L55.1533333,48.9433333 L55.1533333,60.04 L55.1533333,60.04 Z" id="Shape"></path>
                </g>
            </g>
        </g>
    </g>
</svg>